<svg xmlns="http://www.w3.org/2000/svg" viewBox="0 0 3888 380"><path d="M303.144 285.459L237.226 19.59h-52.978l-66.651 265.137L63.154 19.59H.41l81.543 355.469h61.279l67.627-257.08 66.162 257.08H338.3L419.843 19.59h-62.988l-53.711 265.869zm305.769-163.086c-16.93-10.902-37.842-16.358-62.744-16.358-22.789 0-43.297 5.615-61.523 16.846-18.23 11.231-32.555 27.142-42.969 47.729-10.418 20.592-15.625 44.476-15.625 71.655v10.01c0 24.09 5.127 45.818 15.381 65.186 10.254 19.371 24.982 34.63 44.189 45.776 19.203 11.15 41.664 16.724 67.383 16.724 24.25 0 44.922-4.723 62.012-14.16 17.09-9.438 30.434-21.24 40.039-35.4l-32.471-31.494c-16.601 21.484-38.574 32.227-65.918 32.227-13.348 0-25.024-2.93-35.034-8.789-10.01-5.859-17.944-13.996-23.804-24.414-5.859-10.414-9.361-22.377-10.498-35.889H659.45v-25.635c0-25.879-4.192-48.622-12.573-68.237-8.385-19.612-21.038-34.871-37.964-45.777zm-9.521 95.703h-110.84c2.766-20.019 9.033-35.561 18.799-46.631 9.766-11.066 22.621-16.601 38.574-16.601 17.902 0 31.086 5.493 39.551 16.479 8.461 10.986 13.1 25.024 13.916 42.114v4.639zM979.275 19.59h-41.992L803.249 375.059h66.162l28.32-81.543h136.475l28.32 81.543h66.162L994.167 19.59h-14.892zm-63.965 222.9l50.537-145.752 50.537 145.752H915.31zm361.967-136.474c-13.023 0-24.498 3.014-34.424 9.033-9.93 6.023-18.23 14.568-24.902 25.635l-1.709-29.785h-57.861v264.16h60.791V195.127c9.277-20.344 27.504-30.518 54.688-30.518 7.973 0 16.029.652 24.17 1.953l.488-57.373c-2.117-.813-5.333-1.545-9.644-2.197-4.315-.648-8.179-.976-11.597-.976zm220.863 16.357c-16.93-10.902-37.842-16.358-62.744-16.358-22.789 0-43.297 5.615-61.523 16.846-18.23 11.231-32.555 27.142-42.969 47.729-10.418 20.592-15.625 44.476-15.625 71.655v10.01c0 24.09 5.127 45.818 15.381 65.186 10.254 19.371 24.982 34.63 44.19 45.776 19.203 11.15 41.664 16.724 67.383 16.724 24.25 0 44.922-4.723 62.012-14.16 17.09-9.438 30.434-21.24 40.039-35.4l-32.471-31.494c-16.601 21.484-38.574 32.227-65.918 32.227-13.348 0-25.024-2.93-35.034-8.789-10.01-5.859-17.944-13.996-23.804-24.414-5.859-10.414-9.361-22.377-10.498-35.889h172.119v-25.635c0-25.879-4.193-48.622-12.573-68.237-8.386-19.612-21.04-34.871-37.965-45.777zm-9.522 95.703h-110.84c2.766-20.019 9.033-35.561 18.799-46.631 9.766-11.066 22.621-16.601 38.574-16.601 17.902 0 31.086 5.493 39.551 16.479 8.461 10.986 13.1 25.024 13.916 42.114v4.639zm449.585-182.373c-22.381-13.996-48.218-20.996-77.515-20.996-28.973 0-54.649 7.042-77.026 21.118-22.381 14.08-39.795 34.222-52.246 60.425-12.451 26.207-18.677 56.969-18.677 92.285v17.822c0 35.32 6.264 66.082 18.799 92.285 12.531 26.207 30.029 46.307 52.49 60.303 22.461 14 48.176 20.996 77.149 20.996 29.297 0 55.092-6.996 77.393-20.996 22.297-13.996 39.589-34.058 51.88-60.181 12.287-26.123 18.433-56.923 18.433-92.407v-17.822c0-35.48-6.188-66.322-18.555-92.529-12.372-26.203-29.748-46.303-52.125-60.303zm7.202 170.654c0 39.391-7.286 69.5-21.851 90.332-14.568 20.836-35.362 31.25-62.378 31.25-17.418 0-32.513-4.677-45.288-14.038-12.779-9.357-22.583-23.151-29.419-41.382-6.836-18.227-10.254-40.283-10.254-66.162v-18.31c0-25.879 3.376-47.89 10.132-66.04 6.752-18.146 16.48-31.86 29.175-41.138 12.695-9.277 27.748-13.916 45.166-13.916 27.016 0 47.89 10.376 62.622 31.128 14.728 20.752 22.095 50.743 22.095 89.966v18.31zm247.374-100.341c-15.625 0-29.949 3.052-42.969 9.155-13.023 6.103-24.254 14.854-33.691 26.245l-1.953-30.518h-57.129v264.16h60.791V187.07c5.371-9.926 12.531-17.658 21.484-23.193 8.949-5.531 19.123-8.301 30.518-8.301 15.625 0 27.221 3.704 34.79 11.108 7.569 7.408 11.353 19.897 11.353 37.476v170.898h60.791v-170.41c0-34.668-7.286-59.772-21.85-75.317-14.57-15.541-35.28-23.315-62.135-23.315zm307.562 16.357c-16.93-10.902-37.842-16.358-62.744-16.358-22.789 0-43.297 5.615-61.523 16.846-18.23 11.231-32.555 27.142-42.969 47.729-10.418 20.592-15.625 44.476-15.625 71.655v10.01c0 24.09 5.127 45.818 15.381 65.186 10.254 19.371 24.982 34.63 44.19 45.776 19.203 11.15 41.664 16.724 67.383 16.724 24.25 0 44.922-4.723 62.012-14.16 17.09-9.438 30.434-21.24 40.039-35.4l-32.471-31.494c-16.602 21.484-38.574 32.227-65.918 32.227-13.348 0-25.024-2.93-35.034-8.789-10.01-5.859-17.944-13.996-23.804-24.414-5.859-10.414-9.361-22.377-10.498-35.889h172.119v-25.635c0-25.879-4.192-48.622-12.573-68.237-8.386-19.612-21.039-34.871-37.965-45.777zm-9.522 95.703h-110.84c2.765-20.019 9.033-35.561 18.799-46.631 9.766-11.066 22.621-16.601 38.574-16.601 17.902 0 31.086 5.493 39.551 16.479 8.461 10.986 13.1 25.024 13.916 42.114v4.639zm388.655-112.06c-17.742 0-33.447 3.54-47.119 10.62-13.672 7.08-24.986 16.968-33.935 29.663-6.676-13.672-16.198-23.804-28.565-30.396-12.371-6.592-26.855-9.888-43.457-9.888-16.277 0-30.804 2.808-43.579 8.423-12.78 5.615-23.644 13.714-32.593 24.292l-1.953-27.832h-57.129v264.16h60.791V184.141c9.766-19.043 26.283-28.564 49.561-28.564 15.297 0 26.894 3.746 34.79 11.231 7.893 7.488 11.841 20.103 11.841 37.842v170.41h60.791V199.033l-.244-5.615c3.578-11.555 9.644-20.752 18.188-27.588s19.165-10.254 31.86-10.254c15.461 0 27.058 3.54 34.79 10.62 7.729 7.08 11.597 19.653 11.597 37.72v171.143h60.791V204.16c0-34.016-7.408-58.876-22.217-74.585-14.812-15.705-36.216-23.559-64.209-23.559zm310.186 16.357c-16.93-10.902-37.842-16.358-62.744-16.358-22.789 0-43.297 5.615-61.524 16.846-18.23 11.231-32.554 27.142-42.969 47.729-10.418 20.592-15.625 44.476-15.625 71.655v10.01c0 24.09 5.127 45.818 15.381 65.186 10.254 19.371 24.982 34.63 44.189 45.776 19.203 11.15 41.664 16.724 67.383 16.724 24.25 0 44.922-4.723 62.011-14.16 17.09-9.438 30.434-21.24 40.039-35.4l-32.471-31.494c-16.602 21.484-38.574 32.227-65.918 32.227-13.348 0-25.024-2.93-35.034-8.789-10.01-5.859-17.944-13.996-23.804-24.414-5.859-10.414-9.361-22.377-10.498-35.889h172.119v-25.635c0-25.879-4.193-48.622-12.573-68.237-8.382-19.612-21.036-34.871-37.962-45.777zm-9.521 95.703h-110.84c2.766-20.019 9.033-35.561 18.799-46.631 9.765-11.066 22.621-16.601 38.574-16.601 17.903 0 31.086 5.493 39.551 16.479 8.461 10.986 13.1 25.024 13.916 42.114v4.639zm260.075-83.008c-17.09-19.367-39.471-29.053-67.139-29.053-21.324 0-39.837 5.615-55.542 16.846-15.709 11.231-27.752 27.02-36.133 47.363-8.385 20.348-12.573 43.865-12.573 70.557v5.127c0 25.555 4.23 48.504 12.695 68.848 8.461 20.348 20.546 36.297 36.255 47.852 15.705 11.559 33.974 17.334 54.809 17.334 29.457 0 52.979-10.822 70.557-32.471l2.93 27.588h54.932v-375h-60.791v135.009zm0 163.33c-10.742 21.16-28.16 31.738-52.246 31.738-19.859 0-34.546-7.77-44.067-23.315-9.521-15.541-14.282-35.847-14.282-60.913v-5.127c0-25.227 4.841-45.734 14.526-61.524 9.682-15.785 24.452-23.682 44.312-23.682 23.926 0 41.176 10.338 51.758 31.006v111.817zM3586.708 9.824c-10.582 0-18.963 3.052-25.147 9.155-6.188 6.104-9.277 13.878-9.277 23.315 0 9.441 3.09 17.132 9.277 23.071 6.184 5.943 14.565 8.911 25.147 8.911 10.578 0 18.959-3.01 25.146-9.033 6.184-6.02 9.277-13.672 9.277-22.949 0-9.438-3.094-17.212-9.277-23.315-6.187-6.103-14.568-9.155-25.146-9.155zm-30.518 365.235h60.791v-264.16h-60.791v264.16zm321.391-61.524V197.08c0-19.691-4.357-36.377-13.062-50.049-8.709-13.672-20.794-23.926-36.255-30.762-15.465-6.836-33.287-10.254-53.467-10.254-21.484 0-40.57 3.784-57.251 11.353-16.686 7.568-29.541 17.578-38.574 30.029-9.033 12.451-13.55 25.757-13.55 39.917h60.791c0-6.672 1.869-12.695 5.615-18.066 3.742-5.371 9.033-9.602 15.869-12.695 6.836-3.09 14.729-4.639 23.682-4.639 14.973 0 26.283 3.948 33.936 11.841 7.648 7.896 11.475 18.841 11.475 32.837v17.09h-36.621c-38.414 0-68.077 7.488-88.989 22.461-20.916 14.977-31.372 36.541-31.372 64.697 0 14.977 3.823 28.484 11.475 40.527 7.648 12.047 18.311 21.484 31.982 28.32 13.672 6.836 29.133 10.254 46.387 10.254 14.648 0 27.748-2.686 39.306-8.057 11.555-5.371 21.485-12.531 29.785-21.484 1.953 10.742 4.23 18.963 6.836 24.658h62.012v-4.15c-6.676-14.16-10.01-33.283-10.01-57.373zm-60.791-12.939c-4.559 8.465-11.761 15.709-21.606 21.728-9.85 6.023-21.118 9.033-33.814 9.033-12.859 0-22.869-3.376-30.029-10.132-7.164-6.752-10.742-15.503-10.742-26.245 0-13.832 5.451-24.574 16.357-32.227 10.902-7.648 26.935-11.475 48.096-11.475h31.738v49.318z"/></svg>