<svg xmlns="http://www.w3.org/2000/svg" viewBox="0 0 128.539 130.001"><path d="M64.086.012L63.328 0l-.092 5.687.609.01 2.843.046.01-.609-2.694-.044.082-5.078zm9.752 5.675l-.395-.397a1.545 1.545 0 0 1-.529.362c-.19.076-.406.098-.648.067a1.153 1.153 0 0 1-.99-.823 1.757 1.757 0 0 1-.072-.73l2.836.362.041-.322a2.858 2.858 0 0 0-.05-1.089 1.566 1.566 0 0 0-.479-.795c-.235-.207-.547-.336-.937-.385a1.691 1.691 0 0 0-.934.145c-.302.137-.56.358-.772.664-.212.305-.346.676-.402 1.112l-.021.167c-.05.39-.015.749.105 1.077.12.328.314.597.584.807.27.21.596.34.978.388.382.049.712.014.99-.104.278-.12.509-.288.695-.506zm-2.06-2.947a.948.948 0 0 1 .763-.224c.336.043.568.185.696.425.128.241.181.527.16.857l-.007.056-2.089-.266c.099-.379.258-.661.477-.848zm9.057 5.18a1.803 1.803 0 0 1-.008-.415c.013-.159.039-.311.075-.454l.485-1.908a1.441 1.441 0 0 0-.001-.804 1.23 1.23 0 0 0-.418-.599 1.997 1.997 0 0 0-.758-.356 2.008 2.008 0 0 0-.893-.039 1.526 1.526 0 0 0-.691.31 1.003 1.003 0 0 0-.352.527l.708.18a.54.54 0 0 1 .194-.295.787.787 0 0 1 .373-.159 1.15 1.15 0 0 1 .477.026c.278.07.472.196.584.376.111.18.135.395.072.645l-.083.326-.689-.175a2.9 2.9 0 0 0-1.018-.095c-.302.032-.554.13-.756.294a1.247 1.247 0 0 0-.413.681c-.057.225-.052.444.016.657.068.213.194.401.377.561.183.161.412.276.684.345.237.06.467.069.688.028.221-.042.422-.12.602-.236a1.639 1.639 0 0 0-.01.453l.738.188.017-.062zm-.577-1.299a1.053 1.053 0 0 1-.308.244 1.235 1.235 0 0 1-.893.103.923.923 0 0 1-.401-.2.665.665 0 0 1-.201-.319.731.731 0 0 1 0-.383.639.639 0 0 1 .466-.484c.247-.073.572-.058.976.044l.575.146-.214.849zm6.597-.245c.188-.044.393-.024.618.06.117.044.224.095.322.154l.234-.625a1.075 1.075 0 0 0-.28-.163 1.133 1.133 0 0 0-.6-.068c-.19.033-.368.113-.532.24l.154-.455-.666-.25-1.484 3.958.684.256L86.36 6.67a.961.961 0 0 1 .495-.294zm5.41 6.218l.651.331 1.253-2.47c.463-.913.292-1.573-.514-1.982a1.577 1.577 0 0 0-1.392-.036l.214-.474-.617-.313-1.912 3.769.651.331 1.368-2.696a1.29 1.29 0 0 1 .601-.247c.214-.029.422.008.621.109.251.127.405.287.464.481.058.193.014.434-.132.722l-1.256 2.475zm14.335 4.641a1.662 1.662 0 0 0-.717-.363 1.555 1.555 0 0 0-.746.02 1.068 1.068 0 0 0-.041-.692 1.554 1.554 0 0 0-.457-.596 1.753 1.753 0 0 0-.638-.351 1.47 1.47 0 0 0-.662-.035l.274-.366-.532-.442-2.702 3.25.562.467 1.983-2.385c.184-.091.371-.126.56-.106.19.02.378.108.564.263.463.385.498.812.107 1.283l-1.778 2.138.562.467 1.791-2.154c.122-.118.257-.204.405-.258a.875.875 0 0 1 .46-.037c.159.029.31.103.455.223.226.188.354.383.384.586.03.202-.063.433-.278.691l-1.781 2.142.562.467 1.776-2.135c.335-.403.489-.775.463-1.119-.028-.342-.22-.662-.576-.958zm5.571 5.518a1.838 1.838 0 0 0-.885-.568 1.832 1.832 0 0 0-1.019.014 2.51 2.51 0 0 0-.976.562l-.067.06a2.485 2.485 0 0 0-.66.911 1.85 1.85 0 0 0-.121 1.011c.055.34.213.655.472.944.259.289.555.479.888.57.333.092.672.087 1.017-.013.345-.1.67-.287.975-.56l.067-.06c.304-.273.525-.577.663-.91a1.82 1.82 0 0 0 .122-1.013 1.86 1.86 0 0 0-.476-.948zm-.304 1.702c-.115.226-.28.435-.493.626l-.067.06a2.197 2.197 0 0 1-.674.424 1.26 1.26 0 0 1-.69.076 1.031 1.031 0 0 1-.591-.346c-.172-.192-.267-.401-.283-.628s.034-.453.15-.678c.116-.225.281-.433.494-.625l.067-.06c.213-.191.438-.333.674-.424.236-.091.466-.118.69-.079.224.039.421.153.591.343.172.192.266.401.282.629.015.229-.035.456-.15.682zm3.674 4.563a.984.984 0 0 1 .576.032c.18.068.34.2.479.394.073.102.133.204.182.307l.543-.389a1.084 1.084 0 0 0-.142-.292 1.133 1.133 0 0 0-.46-.391 1.19 1.19 0 0 0-.576-.097l.382-.292-.414-.578-3.437 2.46.425.594 2.442-1.748zm1.12 5.488a1.773 1.773 0 0 0-.298.951c-.008.342.083.681.273 1.017.189.336.414.58.675.732.261.152.534.237.819.256l.082-.553a1.55 1.55 0 0 1-.606-.208 1.289 1.289 0 0 1-.441-.48 1.156 1.156 0 0 1 .069-1.285c.136-.193.317-.358.542-.494l1.405 2.49.282-.159c.354-.2.635-.43.844-.691.208-.261.326-.548.352-.86.026-.312-.058-.639-.251-.982a1.706 1.706 0 0 0-.674-.663 1.895 1.895 0 0 0-.993-.222c-.371.012-.749.126-1.132.342l-.146.083c-.343.192-.61.435-.802.726zm2.601-.457c.28.065.492.224.635.478.166.295.191.566.075.812-.117.247-.314.46-.592.641l-.048.027-1.034-1.834c.363-.148.684-.189.964-.124zm2.772 15.09l.58-.187-.827-2.565 4.833-1.559-.233-.721-5.413 1.746.187.58.873 2.706zm2.963 3.035l-.165.032a2.257 2.257 0 0 0-.99.435 1.777 1.777 0 0 0-.585.807 1.958 1.958 0 0 0-.064 1.051c.073.378.209.681.407.908.199.227.431.395.696.503l.254-.498a1.554 1.554 0 0 1-.509-.389 1.294 1.294 0 0 1-.266-.595 1.153 1.153 0 0 1 .059-.678c.086-.206.225-.379.415-.519.19-.14.414-.239.671-.296l.54 2.808.318-.061a2.871 2.871 0 0 0 1.02-.387c.281-.181.483-.416.607-.703.124-.288.148-.625.074-1.011a1.694 1.694 0 0 0-.429-.842c-.225-.245-.515-.42-.871-.527s-.75-.121-1.182-.038zm1.907 1.515c.064.332.002.597-.187.794-.189.197-.444.337-.765.42l-.054.01-.398-2.068c.39-.025.708.038.953.189.246.15.396.369.451.655zm.253 6.694a.545.545 0 0 1 .341.092c.108.07.197.171.268.305.07.133.112.287.124.461.02.286-.039.51-.175.672-.136.162-.333.252-.59.27l-.335.023-.049-.709a2.91 2.91 0 0 0-.227-.996 1.406 1.406 0 0 0-.515-.626c-.219-.14-.477-.2-.776-.18-.231.016-.438.09-.619.221s-.32.309-.415.534a1.638 1.638 0 0 0-.114.758c.017.244.08.465.189.662s.246.364.412.498a1.66 1.66 0 0 0-.433.132l.052.76.062-.004c.106-.054.237-.1.392-.137.155-.037.307-.06.455-.07l1.964-.135c.306-.021.561-.105.764-.252a1.23 1.23 0 0 0 .437-.584c.089-.242.123-.519.101-.831a2.027 2.027 0 0 0-.241-.86 1.53 1.53 0 0 0-.51-.56.997.997 0 0 0-.611-.169l.049.725zM125.41 62.3a1.071 1.071 0 0 1-.328-.216 1.23 1.23 0 0 1-.378-.816.922.922 0 0 1 .065-.443.664.664 0 0 1 .24-.291.729.729 0 0 1 .364-.119.636.636 0 0 1 .605.291c.146.212.234.526.263.941l.041.592-.872.061zm3.004 6.27a1.193 1.193 0 0 0-.396-.43l.481.003.028-.71-4.223-.164-.028.73 3.002.117a.983.983 0 0 1 .435.378c.1.164.146.366.137.605-.005.125-.02.243-.045.354l.668.026a1.056 1.056 0 0 0 .067-.318 1.155 1.155 0 0 0-.126-.591zm-4.622 5.169l2.99.447c.188.133.329.297.424.492.095.195.125.403.092.624-.042.278-.145.475-.31.592-.165.116-.407.15-.726.103l-2.747-.411-.108.722 2.739.41c1.012.151 1.585-.22 1.719-1.114a1.597 1.597 0 0 0-.05-.722 1.603 1.603 0 0 0-.355-.61l.517.054.102-.684-4.18-.625-.107.722zm-2.787 11.808l2.887 1.133a.998.998 0 0 1 .276.499c.04.186.016.392-.073.618-.22.56-.615.728-1.184.504l-2.589-1.016-.267.68 2.607 1.023c.151.079.275.18.372.303a.865.865 0 0 1 .179.425c.023.16 0 .327-.069.502-.107.274-.253.457-.436.549-.183.092-.431.076-.744-.046l-2.593-1.018-.267.68 2.585 1.015c.487.191.89.221 1.208.088.318-.133.561-.415.731-.846.108-.274.147-.539.119-.795a1.566 1.566 0 0 0-.253-.702c.25-.017.465-.102.644-.257.18-.155.32-.362.422-.621.098-.25.142-.488.132-.716s-.068-.441-.175-.639l.434.145.253-.644-3.934-1.544-.265.68zm-1.797 9.414l-.078-.045a2.485 2.485 0 0 0-1.071-.343 1.847 1.847 0 0 0-.999.201 1.844 1.844 0 0 0-.749.743 1.844 1.844 0 0 0-.265 1.021c.017.345.127.665.33.962.203.297.482.547.837.751l.078.045c.354.204.712.319 1.072.346.36.027.693-.04 1-.2.307-.16.557-.409.752-.748.192-.334.28-.674.263-1.018a1.825 1.825 0 0 0-.332-.963 2.524 2.524 0 0 0-.838-.752zm.399 2.442a1.032 1.032 0 0 1-.51.464 1.284 1.284 0 0 1-.693.07 2.162 2.162 0 0 1-.749-.273l-.078-.045a2.214 2.214 0 0 1-.614-.508 1.253 1.253 0 0 1-.288-.632 1.037 1.037 0 0 1 .144-.67c.129-.223.298-.378.508-.465.21-.086.441-.109.691-.069.25.04.5.132.748.274l.078.045c.248.143.453.312.614.508.161.196.258.406.291.631a1.03 1.03 0 0 1-.142.67zm-6.814 3.672l2.423 1.775a.981.981 0 0 1 .149.557 1.065 1.065 0 0 1-.225.578c-.074.101-.152.19-.235.268l.539.395a1.223 1.223 0 0 0 .233-.226c.132-.181.208-.367.228-.559.02-.192-.01-.385-.088-.578l.397.271.42-.573-3.409-2.498-.432.59zm-1.361 5.18l-.124-.113a2.26 2.26 0 0 0-.941-.533 1.775 1.775 0 0 0-.996.014c-.327.1-.621.292-.88.577-.26.285-.421.575-.484.87a1.84 1.84 0 0 0 .013.858l.551-.095a1.548 1.548 0 0 1 .008-.641c.047-.199.153-.388.318-.569a1.157 1.157 0 0 1 1.243-.337c.226.069.439.189.639.36l-1.926 2.113.24.218c.3.274.607.469.92.585.313.116.622.138.927.065.305-.073.589-.255.854-.546.218-.239.357-.521.419-.847a1.9 1.9 0 0 0-.099-1.013c-.13-.347-.357-.669-.682-.966zm-.073 2.434c-.228.25-.478.359-.748.325-.271-.034-.535-.154-.794-.361l-.04-.037 1.418-1.556c.254.298.393.59.419.877a.941.941 0 0 1-.255.752zm-10.918 4.94l-2.294 1.68.36.492 2.175-1.592 3 4.097.611-.448-3.36-4.589-.492.36zm-4.313 5.297a2.254 2.254 0 0 0-.726-.802 1.77 1.77 0 0 0-.95-.3 1.958 1.958 0 0 0-1.017.271c-.336.189-.58.413-.733.673-.153.26-.238.533-.257.818l.553.084a1.54 1.54 0 0 1 .209-.605c.107-.174.267-.32.481-.44a1.156 1.156 0 0 1 1.285.072c.193.137.357.318.493.543l-2.494 1.399.159.283c.199.354.429.636.689.845.261.209.547.327.859.353s.639-.056.982-.249c.282-.158.503-.382.664-.673.161-.291.236-.621.225-.993-.011-.371-.125-.749-.34-1.133l-.082-.146zm-.274 1.8a.946.946 0 0 1-.479.634c-.295.166-.566.19-.812.073-.246-.117-.459-.315-.639-.593l-.027-.048 1.836-1.03c.146.362.187.683.121.964zm-6.772 2.996a.544.544 0 0 1 .02.353.789.789 0 0 1-.205.35 1.133 1.133 0 0 1-.399.263c-.265.109-.496.124-.693.045-.197-.078-.344-.237-.442-.475l-.127-.311.658-.27c.359-.147.65-.324.874-.529.224-.206.368-.434.432-.686a1.24 1.24 0 0 0-.074-.793 1.17 1.17 0 0 0-.405-.518 1.241 1.241 0 0 0-.637-.226 1.62 1.62 0 0 0-.755.13 1.568 1.568 0 0 0-.569.388 1.66 1.66 0 0 0-.343.548 1.685 1.685 0 0 0-.261-.37l-.705.289.024.058c.085.083.169.193.253.329.084.136.154.273.21.41l.747 1.822c.117.284.277.499.48.646.203.146.434.223.692.231.258.008.532-.047.821-.165.304-.125.55-.291.741-.5.19-.209.314-.429.371-.661a1.002 1.002 0 0 0-.032-.633l-.676.275zm-2.039-.245l-.332-.81c.008-.124.042-.251.102-.38a1.238 1.238 0 0 1 .655-.615.917.917 0 0 1 .441-.077.67.67 0 0 1 .352.137c.099.078.175.18.228.308a.637.637 0 0 1-.086.666c-.155.206-.425.388-.811.546l-.549.225zm-6.091-.103l.827 2.888a.974.974 0 0 1-.224.531 1.054 1.054 0 0 1-.532.319c-.12.034-.237.057-.35.068l.184.642a1.213 1.213 0 0 0 .323-.035c.215-.062.39-.162.523-.302.133-.14.228-.31.285-.51l.147.458.683-.196-1.164-4.063-.702.2zm-5.603 1.331l.506 2.981c-.068.22-.18.406-.336.556s-.344.245-.564.282c-.277.047-.497.01-.659-.11-.162-.12-.27-.34-.324-.658l-.465-2.738-.72.122.463 2.73c.171 1.009.702 1.438 1.593 1.287.254-.043.478-.134.671-.272.193-.138.349-.314.469-.527l.11.508.682-.116-.707-4.167-.719.122zm-12.248 4.134a.994.994 0 0 1-.386.419 1.063 1.063 0 0 1-.609.126c-.601-.032-.885-.354-.852-.965l.149-2.777-.729-.039-.151 2.797a1.114 1.114 0 0 1-.171.448.874.874 0 0 1-.347.304.984.984 0 0 1-.498.093c-.294-.016-.513-.096-.658-.241-.145-.145-.208-.385-.19-.72l.15-2.781-.729-.039-.149 2.773c-.028.523.071.914.297 1.174.226.26.57.402 1.033.427.294.016.558-.03.792-.137a1.55 1.55 0 0 0 .586-.461c.094.232.243.409.447.531.203.122.444.19.722.205.268.015.508-.019.721-.1.213-.081.397-.203.552-.367l-.001.458.69.037.227-4.22-.729-.039-.167 3.094zm-9.828-3.931a1.84 1.84 0 0 0-.942-.476 1.853 1.853 0 0 0-1.053.071c-.322.125-.591.33-.809.617-.218.287-.367.63-.449 1.031l-.018.088c-.081.401-.078.776.01 1.126.088.35.257.645.506.886.249.24.565.4.947.477.378.077.727.053 1.049-.072s.591-.331.809-.619a2.52 2.52 0 0 0 .449-1.033l.018-.088a2.488 2.488 0 0 0-.013-1.125 1.838 1.838 0 0 0-.504-.883zm-.197 1.864l-.018.088a2.208 2.208 0 0 1-.288.743 1.278 1.278 0 0 1-.507.475 1.018 1.018 0 0 1-.679.077 1.032 1.032 0 0 1-.601-.337 1.29 1.29 0 0 1-.285-.636 2.176 2.176 0 0 1 .022-.797l.018-.088c.057-.281.153-.528.288-.743s.305-.372.508-.473a1.03 1.03 0 0 1 .681-.075c.253.051.453.163.602.335.148.172.243.383.284.634s.032.516-.025.797zm-8.064-1.072a.973.973 0 0 1-.482.316 1.059 1.059 0 0 1-.62-.032 1.924 1.924 0 0 1-.329-.139l-.205.636a1.116 1.116 0 0 0 .288.151c.213.069.414.082.603.041.189-.042.362-.13.521-.265l-.133.462.677.219 1.299-4.022-.695-.224-.924 2.857zm-5.312-5.343c-.352-.157-.678-.22-.978-.187-.3.033-.57.126-.811.281l.262.494c.204-.111.408-.176.611-.193.203-.017.417.024.64.124.228.102.402.248.521.437.12.189.182.402.187.638.005.236-.042.476-.142.719l-2.61-1.168-.132.296a2.866 2.866 0 0 0-.268 1.057 1.56 1.56 0 0 0 .228.9c.165.266.427.48.786.64.295.132.607.176.936.132.329-.044.639-.181.931-.411.291-.23.527-.547.707-.948l.069-.153c.161-.359.231-.712.212-1.061a1.782 1.782 0 0 0-.325-.942 1.978 1.978 0 0 0-.824-.655zm-.671 3.511a.944.944 0 0 1-.795-.007c-.309-.138-.49-.341-.543-.609-.053-.268-.021-.557.095-.867l.022-.05 1.922.86c-.203.335-.437.559-.701.673zm-11.184-10.473l-.355.495 2.192 1.569-2.955 4.129.616.441 3.31-4.625-.495-.355-2.313-1.654zm-4.134-3.619c-.284-.26-.574-.422-.869-.486a1.84 1.84 0 0 0-.858.011l.093.552a1.56 1.56 0 0 1 .64.009c.198.047.388.154.568.319.184.169.303.362.357.579.054.217.046.439-.024.665a1.76 1.76 0 0 1-.362.638l-2.108-1.932-.219.239c-.274.299-.47.606-.588.919-.117.313-.14.622-.067.926.072.305.253.59.543.855.238.218.52.358.846.421.326.062.664.03 1.013-.097.349-.127.673-.352.97-.677l.114-.124c.266-.29.444-.603.535-.94a1.775 1.775 0 0 0-.012-.996 1.929 1.929 0 0 0-.572-.881zm-1.744 3.12a.944.944 0 0 1-.752-.257c-.249-.229-.357-.478-.323-.749.034-.271.156-.535.364-.793l.037-.04 1.552 1.422c-.299.252-.591.391-.878.417zm-2.969-7.983a1.573 1.573 0 0 0-.547-.419 1.661 1.661 0 0 0-.628-.154c.131-.143.221-.265.269-.364l-.495-.579-.048.041c-.053.107-.13.221-.233.343-.103.122-.21.232-.323.328l-1.495 1.281c-.233.2-.388.419-.462.658a1.22 1.22 0 0 0-.002.73c.073.248.211.49.415.727.214.249.449.431.707.546.258.115.506.163.744.145.238-.019.435-.095.591-.229l-.475-.555c-.091.078-.201.121-.329.13s-.26-.02-.397-.085a1.16 1.16 0 0 1-.375-.296c-.186-.218-.273-.432-.26-.643.013-.211.117-.401.313-.569l.255-.219.462.54c.253.295.511.516.777.664.266.148.528.213.787.195.259-.018.502-.124.73-.319a1.17 1.17 0 0 0 .365-.547c.067-.214.072-.439.015-.676a1.642 1.642 0 0 0-.361-.674zm-.351 1.098a.73.73 0 0 1-.221.313.638.638 0 0 1-.659.128c-.244-.083-.501-.282-.772-.599l-.386-.451.665-.569c.121-.031.252-.039.392-.022a1.231 1.231 0 0 1 .789.429.91.91 0 0 1 .212.395.673.673 0 0 1-.02.376zm-3.848-6.41l-2.48 1.695a.98.98 0 0 1-.575-.045 1.064 1.064 0 0 1-.471-.404 1.909 1.909 0 0 1-.175-.311l-.551.377a1.046 1.046 0 0 0 .136.295c.127.185.277.319.452.401.175.082.366.119.574.109l-.388.284.401.587 3.489-2.386-.412-.602zm-3.038-4.909l-2.669 1.421a1.291 1.291 0 0 1-.634-.143 1.044 1.044 0 0 1-.446-.446c-.132-.248-.167-.468-.103-.66.063-.192.237-.363.522-.515l2.452-1.305-.343-.645-2.445 1.302c-.903.481-1.143 1.12-.718 1.918.121.228.278.411.47.551.192.139.408.232.648.279l-.448.265.325.61 3.731-1.986-.342-.646zM3.971 84.34a1.002 1.002 0 0 1-.519-.236 1.067 1.067 0 0 1-.309-.54c-.157-.581.06-.951.651-1.11l2.685-.724-.19-.705-2.704.729a1.128 1.128 0 0 1-.479-.022.87.87 0 0 1-.397-.235.987.987 0 0 1-.243-.444c-.077-.284-.069-.518.023-.7.092-.183.301-.318.625-.405l2.689-.726-.19-.705-2.682.723c-.505.136-.846.352-1.023.648-.176.296-.204.667-.083 1.115.077.284.203.521.377.709.175.189.382.327.621.413a1.073 1.073 0 0 0-.365.59c-.052.231-.042.481.03.75.07.259.177.477.32.654.143.177.317.314.521.41l-.435.142.18.667 4.081-1.101-.19-.705-2.994.808zm-1.164-9.439l.089-.01a2.482 2.482 0 0 0 1.065-.362c.304-.194.531-.446.683-.756.151-.31.204-.658.159-1.043a1.846 1.846 0 0 0-.395-.978 1.839 1.839 0 0 0-.838-.577 2.485 2.485 0 0 0-1.119-.105l-.089.01a2.52 2.52 0 0 0-1.067.36 1.837 1.837 0 0 0-.685.756 1.864 1.864 0 0 0-.159 1.049c.045.383.176.708.395.974.219.267.499.459.84.576.341.119.715.154 1.121.106zm-1.49-1.102a1.023 1.023 0 0 1-.285-.622c-.03-.256.015-.482.133-.676.119-.195.291-.351.516-.469.225-.118.479-.194.764-.227l.089-.01c.284-.033.55-.019.796.043s.448.174.607.336c.159.162.254.37.283.624.03.256-.014.482-.132.676-.117.195-.289.35-.514.467a2.19 2.19 0 0 1-.764.225l-.089.01c-.284.033-.55.019-.795-.043a1.287 1.287 0 0 1-.609-.334zm3.003-7.623l-3.003.049a.982.982 0 0 1-.455-.354 1.06 1.06 0 0 1-.17-.597 1.943 1.943 0 0 1 .026-.356l-.668.01a.58.58 0 0 0-.035.145 1.14 1.14 0 0 0 .141.76c.1.165.24.301.419.407l-.48.023.012.711 4.226-.068-.013-.73zm-3.122-5.339c.311.204.685.328 1.123.371l.167.017a2.27 2.27 0 0 0 1.073-.134c.324-.129.588-.331.791-.606.203-.275.324-.605.362-.988.038-.383-.005-.712-.131-.987a1.845 1.845 0 0 0-.523-.68l-.386.405c.17.158.295.331.376.518.081.187.109.403.085.646a1.154 1.154 0 0 1-.796 1.012c-.223.08-.465.111-.728.092l.284-2.845-.323-.032a2.858 2.858 0 0 0-1.088.08 1.56 1.56 0 0 0-.782.501c-.201.24-.32.556-.36.948-.032.321.025.631.17.93.147.297.375.548.686.752zm.135-2.332c.237-.135.521-.196.853-.184l.054.005-.21 2.096c-.381-.088-.668-.239-.86-.453a.945.945 0 0 1-.244-.757c.034-.337.17-.572.407-.707zm5.407-9.748l.843-2.716L7 45.86l-.798 2.574-4.85-1.505-.224.724 5.432 1.685.18-.581zm.173-6.928l.153.069c.359.161.712.233 1.06.214.348-.019.662-.126.942-.323.28-.197.499-.471.657-.822.158-.351.221-.677.189-.977-.032-.3-.125-.57-.279-.811l-.493.261c.111.204.175.408.192.611.017.203-.025.417-.125.64a1.166 1.166 0 0 1-.438.521 1.224 1.224 0 0 1-.638.186 1.765 1.765 0 0 1-.719-.144l1.174-2.607-.296-.133a2.842 2.842 0 0 0-1.057-.27 1.565 1.565 0 0 0-.901.226c-.267.164-.481.425-.642.784a1.695 1.695 0 0 0-.134.936c.043.329.18.64.409.932.23.29.545.527.946.707zm-.687-2.336c.139-.309.342-.489.61-.541s.557-.02.867.097l.05.022-.864 1.92c-.333-.204-.557-.439-.671-.703a.94.94 0 0 1 .008-.795zm3.269-5l.379-.625a.55.55 0 0 1-.226-.272.784.784 0 0 1-.043-.403c.019-.15.074-.299.164-.448.148-.245.325-.394.53-.448.205-.054.417-.014.638.119l.287.174-.368.608a2.899 2.899 0 0 0-.388.946c-.058.299-.038.568.06.808.098.241.275.438.531.594.198.12.409.179.633.176.224-.003.44-.068.647-.197.207-.129.384-.313.53-.554.127-.209.203-.426.227-.65a1.673 1.673 0 0 0-.05-.645c.177.08.32.127.43.142l.395-.651-.054-.032c-.118-.017-.251-.055-.399-.114s-.286-.128-.413-.204l-1.684-1.021c-.263-.159-.519-.237-.77-.234a1.23 1.23 0 0 0-.694.226c-.212.147-.4.354-.562.621-.17.281-.269.561-.298.842a1.52 1.52 0 0 0 .095.752c.093.221.227.384.403.49zm1.856-1.131l.308-.508.748.453c.068.105.115.227.144.366a1.228 1.228 0 0 1-.162.884.924.924 0 0 1-.309.325.673.673 0 0 1-.364.099.737.737 0 0 1-.366-.112.638.638 0 0 1-.327-.587c.002-.257.112-.564.328-.92zm5.247-4.029l-2.385-1.826a.974.974 0 0 1-.137-.56c.013-.192.092-.383.237-.573.076-.099.156-.187.241-.263l-.53-.406a1.118 1.118 0 0 0-.238.221 1.144 1.144 0 0 0-.24.554 1.18 1.18 0 0 0 .076.579l-.391-.28-.432.565 3.356 2.569.443-.58zm1.521-6.501c-.077-.217-.098-.433-.063-.646s.13-.401.284-.563c.194-.203.392-.305.594-.305s.419.112.653.335l2.007 1.919.505-.528-2.002-1.914c-.74-.707-1.422-.734-2.046-.081a1.602 1.602 0 0 0-.376.619 1.616 1.616 0 0 0-.062.703l-.392-.342-.478.5 3.055 2.921.505-.528-2.184-2.09zm13.142-11.919c-.336-.074-.698.017-1.084.272-.245.162-.43.356-.554.582a1.566 1.566 0 0 0-.196.72 1.07 1.07 0 0 0-.675-.16c-.236.023-.47.112-.702.266a1.747 1.747 0 0 0-.52.51c-.123.192-.198.4-.224.624l-.272-.368-.577.382 2.332 3.525.609-.403-1.711-2.587c-.034-.202-.014-.391.061-.567s.213-.33.414-.464c.502-.332.921-.243 1.259.268l1.534 2.32.609-.403-1.545-2.336a1.125 1.125 0 0 1-.13-.462.871.871 0 0 1 .097-.451.972.972 0 0 1 .345-.371c.245-.162.469-.229.672-.198.202.03.396.185.582.465l1.536 2.323.609-.403-1.532-2.316c-.289-.438-.601-.694-.937-.768zm6.656.668c.342.046.689-.014 1.04-.178.351-.164.619-.393.803-.684.184-.292.278-.617.282-.977a2.504 2.504 0 0 0-.254-1.095l-.038-.081c-.173-.37-.4-.67-.679-.898a1.827 1.827 0 0 0-.934-.411 1.855 1.855 0 0 0-1.045.181 1.834 1.834 0 0 0-.8.683 1.828 1.828 0 0 0-.281.979c-.004.361.081.727.255 1.097l.038.081c.173.37.4.669.68.896.28.226.591.362.933.407zm-.99-1.695a2.207 2.207 0 0 1-.211-.768 1.276 1.276 0 0 1 .124-.683 1.02 1.02 0 0 1 .5-.467c.234-.109.461-.138.684-.087.222.051.425.165.608.341.183.176.335.394.457.653l.038.081c.121.26.192.516.211.768a1.26 1.26 0 0 1-.127.683 1.035 1.035 0 0 1-.502.466 1.041 1.041 0 0 1-.683.089 1.25 1.25 0 0 1-.605-.34 2.218 2.218 0 0 1-.455-.654l-.039-.082zm8.117-1.014l-.961-2.846a.976.976 0 0 1 .199-.541c.118-.152.29-.267.517-.344.118-.04.234-.068.347-.084l-.214-.633a1.065 1.065 0 0 0-.321.05c-.212.072-.382.18-.508.326a1.18 1.18 0 0 0-.26.523l-.168-.45-.675.228 1.352 4.005.692-.234zm6.486-1.717c.376-.083.675-.227.897-.432a1.85 1.85 0 0 0 .484-.709l-.505-.241a1.549 1.549 0 0 1-.375.519 1.294 1.294 0 0 1-.588.282 1.152 1.152 0 0 1-1.209-.441 1.764 1.764 0 0 1-.314-.663l2.792-.616-.07-.317a2.883 2.883 0 0 0-.414-1.009 1.561 1.561 0 0 0-.72-.587c-.291-.116-.628-.131-1.012-.047a1.71 1.71 0 0 0-.831.451 1.892 1.892 0 0 0-.503.885c-.097.359-.098.753-.003 1.183l.036.164c.085.384.239.71.462.978.223.268.497.456.822.563.324.108.674.12 1.051.037zm-1.552-3.22a.947.947 0 0 1 .643-.468c.331-.073.597-.018.798.166.202.184.349.435.44.753l.012.053-2.056.454c-.035-.389.019-.709.163-.958z" fill="#fff"/></svg>