<svg xmlns="http://www.w3.org/2000/svg" viewBox="0 0 100 95.94"><path d="M63.943 48.836c0 12.918.004 25.837-.003 38.755-.001 2.368-1.17 3.777-3.119 3.826-1.704.043-2.793-.85-3.271-2.773-1.584-6.372-3.143-12.749-4.719-19.123-1.199-4.848-2.419-9.692-3.604-14.543-.323-1.321-.99-2.271-2.393-2.504-1.936-.322-3.434.966-3.452 3.018-.033 3.813-.011 7.627-.011 11.441 0 6.721.002 13.443-.002 20.164-.001 2.602-1.368 4.235-3.563 4.276-2.277.042-3.726-1.585-3.728-4.275-.01-11.298-.001-22.595 0-33.893.002-14.158-.002-28.316.016-42.473.001-.799.054-1.638.298-2.388.543-1.672 2.278-2.778 3.987-2.692 1.9.095 3.395 1.29 3.872 3.239 1.447 5.914 2.852 11.838 4.272 17.759.699 2.914 1.381 5.833 2.094 8.744.472 1.926 1.653 2.831 3.326 2.612 1.666-.219 2.579-1.374 2.581-3.366.011-8.39-.001-16.78.01-25.169.003-1.924.999-3.254 2.707-3.728 1.622-.45 3.394.197 4.128 1.734.392.82.546 1.825.548 2.747.036 12.87.025 25.741.026 38.612zM.01 47.891c.002-12.346-.044-24.693.048-37.038.014-2.008.36-4.11 1.038-5.993C2.342 1.394 5.316-.252 8.985.032c1.71.132 3.421.268 5.135.343 6.274.276 10.474 4.488 10.661 10.772.06 2 .023 4.004.023 6.006.001 21.975-.008 43.95.014 65.926.002 2.423-.313 4.756-1.435 6.918-1.602 3.086-4.129 4.956-7.594 5.398-2.029.259-4.081.343-6.124.498-5.303.404-8.787-2.414-9.453-7.685a26.414 26.414 0 0 1-.195-3.279C.003 72.583.008 60.237.01 47.891zm7.399-.151c0 11.53-.004 23.061.007 34.591.001.902.059 1.81.173 2.704.155 1.218.825 1.867 2.133 1.766 1.519-.118 3.042-.203 4.564-.268 2.087-.089 2.908-.847 3.074-2.941.049-.616.028-1.238.028-1.857.001-22.727.002-45.454 0-68.182 0-.714.036-1.435-.04-2.142-.174-1.626-.95-2.372-2.563-2.501a136.411 136.411 0 0 0-3.993-.246c-2.777-.138-3.3.361-3.379 3.198-.011.381-.004.762-.004 1.143V47.74zm67.748.657c0-13.345-.001-26.689.001-40.034 0-3.388 1.168-4.837 4.504-5.231 5.153-.609 10.318-1.127 15.484-1.615 2.579-.244 4.538 1.367 4.827 3.803.259 2.18-1.348 4.272-3.769 4.577-2.975.374-5.974.56-8.965.794-3.152.247-4.67 1.816-4.674 4.943-.01 6.386-.01 12.773-.001 19.159.004 3.27 1.662 4.886 4.954 4.861 1.763-.013 3.527-.067 5.29-.046 2.588.03 4.393 1.804 4.398 4.261.004 2.459-1.788 4.235-4.38 4.284-1.953.037-3.908-.006-5.862.023-2.552.037-4.376 1.757-4.385 4.291a4252.65 4252.65 0 0 0 .003 29.454c.009 2.486 1.673 4.083 4.248 4.306 3.084.267 6.171.504 9.249.821 2.382.245 4.091 2.255 3.906 4.463-.2 2.384-2.104 4.141-4.574 3.928a546.443 546.443 0 0 1-16.203-1.637c-2.734-.318-4.044-1.983-4.046-4.799-.01-13.535-.006-27.071-.005-40.606z" fill="#FFF"/></svg>