<?xml version="1.0" encoding="utf-8"?>
<!-- Generator: Adobe Illustrator 24.2.0, SVG Export Plug-In . SVG Version: 6.00 Build 0)  -->
<svg version="1.1" id="レイヤー_1" xmlns:svgjs="http://svgjs.com/svgjs"
	 xmlns="http://www.w3.org/2000/svg" xmlns:xlink="http://www.w3.org/1999/xlink" x="0px" y="0px" viewBox="0 0 140 140"
	 style="enable-background:new 0 0 140 140;" xml:space="preserve">
<g transform="matrix(5.833333333333333,0,0,5.833333333333333,0,0)">
	<path d="M18.9,4.5c-0.3,0-0.6-0.2-0.7-0.5c-0.5-1.7-1.2-2.5-1.7-2.5c-0.5,0-1.2,0.8-1.7,2.5c-0.1,0.4-0.5,0.6-0.9,0.5
		c-0.4-0.1-0.6-0.5-0.5-0.9C14.1,1.3,15.2,0,16.5,0c1.3,0,2.5,1.3,3.1,3.5c0.1,0.4-0.1,0.8-0.5,0.9C19.1,4.5,19,4.5,18.9,4.5z"/>
	<path d="M16.5,15.8c-1.3,0-2.5-1.3-3.1-3.5c-0.1-0.4,0.1-0.8,0.5-0.9c0.4-0.1,0.8,0.1,0.9,0.5c0.5,1.7,1.2,2.5,1.7,2.5
		c0.5,0,1.2-0.8,1.7-2.5c0.1-0.4,0.5-0.6,0.9-0.5c0.4,0.1,0.6,0.5,0.5,0.9C19,14.5,17.8,15.8,16.5,15.8z"/>
	<path d="M20.7,13c-0.3,0-0.6,0-0.9-0.1c-1.5-0.2-3.3-0.9-5.1-1.9c-3.3-1.9-6.2-5.1-5-7.1c0,0,0,0,0,0c0.6-1,1.8-1.4,3.6-1.1
		c1.5,0.2,3.3,0.9,5.1,1.9c3.3,1.9,6.2,5.1,5,7.1c0,0,0,0,0,0C22.9,12.6,22,13,20.7,13z M11,4.7c-0.4,0.8,1.1,3.1,4.5,5.1
		c1.6,0.9,3.2,1.5,4.5,1.7c1.1,0.1,1.9,0,2.1-0.4c0,0,0,0,0,0c0.4-0.8-1.1-3.1-4.5-5.1c-1.6-0.9-3.2-1.5-4.5-1.7
		C12,4.2,11.2,4.3,11,4.7C11,4.7,11,4.7,11,4.7z M22.7,11.4L22.7,11.4L22.7,11.4z"/>
	<path d="M12.3,13c-1.2,0-2.2-0.4-2.6-1.2c-0.6-1-0.3-2.3,0.8-3.7c1-1.2,2.4-2.5,4.2-3.5c1.7-1,3.5-1.7,5.1-1.9
		c1.8-0.2,3,0.2,3.6,1.1c0.6,1,0.3,2.3-0.8,3.7c-1,1.2-2.4,2.5-4.2,3.5C16.4,12.2,14.1,13,12.3,13z M20.7,4.3c-0.2,0-0.5,0-0.7,0.1
		c-1.4,0.2-3,0.8-4.5,1.7c-1.6,0.9-2.9,2-3.7,3.1c-0.7,0.8-0.9,1.6-0.7,2c0.4,0.8,3.3,0.7,6.6-1.3c1.6-0.9,2.9-2,3.7-3.1
		c0.7-0.8,0.9-1.6,0.7-2c0,0,0,0,0,0C21.9,4.4,21.4,4.3,20.7,4.3z"/>
	<path d="M16.2,8.6c-0.4,0-0.8-0.3-0.8-0.8c0-0.6,0.5-1.1,1.1-1.1c0.4,0,0.8,0.3,0.8,0.8c0,0.3-0.2,0.6-0.4,0.7
		C16.7,8.4,16.5,8.6,16.2,8.6z"/>
	<path d="M16.9,8.6c-0.3,0-0.6-0.2-0.7-0.4c-0.3-0.1-0.4-0.4-0.4-0.7c0-0.4,0.3-0.8,0.8-0.8c0.6,0,1.1,0.5,1.1,1.1
		C17.7,8.3,17.3,8.6,16.9,8.6z M16.5,8.3L16.5,8.3L16.5,8.3z"/>
	<path d="M16.5,9c-0.4,0-0.8-0.3-0.8-0.8c0-0.3,0.2-0.6,0.4-0.7c0.1-0.3,0.4-0.4,0.7-0.4c0.4,0,0.8,0.3,0.8,0.8
		C17.7,8.5,17.1,9,16.5,9z"/>
	<path d="M16.5,9c-0.6,0-1.1-0.5-1.1-1.1c0-0.4,0.3-0.8,0.8-0.8c0.3,0,0.6,0.2,0.7,0.4c0.3,0.1,0.4,0.4,0.4,0.7
		C17.3,8.7,16.9,9,16.5,9z"/>
	<path d="M18.4,24c-0.4,0-0.8-0.3-0.8-0.8v-3.8c0-0.4,0.3-0.8,0.8-0.8c0.4,0,0.8,0.3,0.8,0.8v3.8C19.2,23.7,18.8,24,18.4,24z"/>
	<path d="M7.9,24c-0.4,0-0.8-0.3-0.8-0.8V21H6.4c-2.1,0-3.8-1.7-3.8-3.8V15H1.5c-0.2,0-0.4,0-0.5-0.1c-0.4-0.1-0.7-0.4-0.8-0.8
		C0,13.7,0,13.3,0.1,13c0.2-0.6,0.4-1.1,0.6-1.7c1.1-3,2.2-5.8,3.8-7.8C6.4,1.1,8.8,0,12,0c0.4,0,0.7,0.3,0.7,0.8S12.4,1.5,12,1.5
		c-6,0-7.7,4.6-9.9,10.3c-0.2,0.6-0.4,1.1-0.6,1.7l1.9,0c0.4,0,0.8,0.3,0.8,0.8v3c0,1.2,1,2.2,2.2,2.2h1.5c0.4,0,0.8,0.3,0.8,0.8v3
		C8.7,23.7,8.3,24,7.9,24z"/>
</g>
</svg>
