<svg xmlns="http://www.w3.org/2000/svg" viewBox="0 0 140 140"><path d="M100.917 65.333c-.584 0-.584 0 0 0-2.334 0-4.667-1.166-6.417-2.916l-27.417-28c-7.583-8.167-7.583-20.417 0-28l.584-.584c7.583-7 19.833-7 26.833.584l5.833 6.416 5.834-6.416.583-.584a19.902 19.902 0 0 1 14-5.833c5.25 0 9.917 2.333 13.417 5.833 7.583 8.167 7.583 20.417 0 28l-27.417 28c-1.75 2.917-4.083 3.5-5.833 3.5zM80.5 8.75c-2.333 0-5.25 1.167-7 2.917l-.583.583c-4.084 4.667-4.084 11.667 0 16.333l27.416 28 28-28.583c4.084-4.667 4.084-11.667 0-16.333-1.75-1.75-4.666-2.917-7-3.5-2.916 0-5.25 1.166-7.583 2.916l-.583.584L103.833 21c-.583.583-1.75 1.167-2.916 1.167-1.167 0-2.334-.584-2.917-1.167l-9.333-9.333c-2.334-1.75-5.25-2.917-8.167-2.917zm7 102.667c-1.75 0-3.5-1.167-4.083-2.334-1.75-.583-2.334-2.333-2.334-4.083 0-2.333 1.75-4.667 4.667-4.667 3.5 0 6.417 2.917 6.417 6.417 0 2.333-2.334 4.667-4.667 4.667zm-2.333-2.334z"/><path d="M83.417 111.417c-2.334 0-4.667-1.75-4.667-4.667 0-3.5 2.917-6.417 6.417-6.417 2.333 0 4.666 1.75 4.666 4.667 0 1.75-1.166 3.5-2.333 4.083-1.167 1.167-2.333 2.334-4.083 2.334z"/><path d="M85.167 113.167c-3.5 0-6.417-2.917-6.417-6.417 0-2.333 1.75-4.667 4.667-4.667 1.75 0 3.5 1.167 4.083 2.334 1.75.583 2.333 2.333 2.333 4.083 0 2.917-2.333 4.667-4.666 4.667z"/><path d="M85.167 113.167c-2.334 0-4.667-1.75-4.667-4.667 0-1.75 1.167-3.5 2.333-4.083.584-1.75 2.334-2.334 4.084-2.334 2.333 0 4.666 1.75 4.666 4.667.584 3.5-2.916 6.417-6.416 6.417zm15.75-17.5c-7 0-13.417-5.834-13.417-12.834S93.333 70 100.917 70c7 0 12.833 5.833 12.833 12.833s-5.833 12.834-12.833 12.834zm0-17.5c-2.334 0-4.667 1.75-4.667 4.666S98 87.5 100.917 87.5c2.333 0 4.666-1.75 4.666-4.667s-2.333-4.666-4.666-4.666zM78.75 140c-1.75 0-3.5-1.167-4.083-2.917-3.5-9.916-11.084-17.5-21.584-21.583-18.083-6.417-38.5 2.917-44.916 21.583-.584 2.334-3.5 3.5-5.834 2.917-2.333-.583-3.5-3.5-2.916-5.833 8.166-22.75 33.25-35 56-26.834 12.25 4.667 22.166 14 26.833 26.834.583 2.333-.583 4.666-2.917 5.833 0-.583 0 0-.583 0zM49.583 80.5c-11.666 0-23.333-4.667-32.083-13.417-1.75-1.75-1.75-4.666 0-6.416s4.667-1.75 6.417 0c10.5 10.5 26.25 14 39.666 8.166 2.334-1.166 4.667 0 5.834 2.334 1.166 2.333 0 4.666-2.334 5.833-5.833 2.333-11.666 3.5-17.5 3.5z"/><path d="M41.417 104.417c-15.75 0-28.584-12.834-28.584-28.584S25.667 47.25 41.417 47.25 70 60.083 70 75.833s-12.833 28.584-28.583 28.584zm0-47.834c-11.084 0-19.834 8.75-19.834 19.834 0 11.083 8.75 19.833 19.834 19.833S61.25 87.5 61.25 76.417c0-11.084-8.75-19.834-19.833-19.834z"/></svg>