<svg xmlns="http://www.w3.org/2000/svg" viewBox="0 0 70 70.001"><g fill="#333"><path d="M63.438 70H6.562A6.569 6.569 0 0 1 0 63.437V26.25a2.188 2.188 0 0 1 4.375 0v37.188c0 1.207.98 2.187 2.188 2.187h56.874c1.208 0 2.188-.98 2.188-2.188V26.25a2.188 2.188 0 0 1 4.375 0v37.188A6.569 6.569 0 0 1 63.437 70zm4.375-50.312H2.186A2.188 2.188 0 0 1 0 17.5V6.562A6.569 6.569 0 0 1 6.563 0h56.874A6.569 6.569 0 0 1 70 6.563V17.5a2.19 2.19 0 0 1-2.188 2.188zM4.374 15.313h61.25v-8.75c0-1.208-.98-2.188-2.188-2.188H6.563a2.19 2.19 0 0 0-2.188 2.188v8.75z"/><path d="M21.875 19.688a2.186 2.186 0 0 1-2.103-2.788l4.375-15.313a2.188 2.188 0 0 1 4.206 1.202L23.978 18.1a2.185 2.185 0 0 1-2.103 1.587zm21.878 0A2.188 2.188 0 0 1 41.65 16.9l4.375-15.313A2.192 2.192 0 0 1 48.729.085a2.188 2.188 0 0 1 1.502 2.703l-4.375 15.313a2.19 2.19 0 0 1-2.103 1.587zM26.568 56.875a4.691 4.691 0 0 1-4.693-4.684V35.309a4.69 4.69 0 0 1 4.684-4.684c.718 0 1.438.17 2.086.49l16.893 8.45a4.69 4.69 0 0 1 2.097 6.276 4.718 4.718 0 0 1-2.1 2.1l-16.882 8.444h-.003c-.67.332-1.382.49-2.082.49zm1.105-2.45h.01-.01zM26.56 35a.311.311 0 0 0-.309.31v16.88a.311.311 0 0 0 .446.28l16.882-8.443a.325.325 0 0 0 .14-.14.306.306 0 0 0-.14-.408l-16.885-8.444A.256.256 0 0 0 26.56 35z"/></g></svg>