<svg xmlns="http://www.w3.org/2000/svg" viewBox="0 0 100 79.18"><g fill="#333"><path d="M68.75 41.667H27.083A2.084 2.084 0 0 1 25 39.583V6.25A6.258 6.258 0 0 1 31.25 0h37.5A6.258 6.258 0 0 1 75 6.25v29.167a6.258 6.258 0 0 1-6.25 6.25zM29.167 37.5H68.75c1.15 0 2.083-.933 2.083-2.083V6.25c0-1.15-.933-2.083-2.083-2.083h-37.5c-1.15 0-2.083.933-2.083 2.083V37.5z"/><path d="M85.417 25h-12.5a2.084 2.084 0 0 1-2.084-2.083v-12.5c0-1.15.934-2.084 2.084-2.084h12.5c1.15 0 2.083.934 2.083 2.084v12.5c0 1.15-.933 2.083-2.083 2.083zM75 20.833h8.333V12.5H75v8.333zm-47.917 8.334h-16.25a2.084 2.084 0 0 1 0-4.167H25v-8.333H10.833a2.084 2.084 0 0 1 0-4.167h16.25c1.15 0 2.084.933 2.084 2.083v12.5c0 1.15-.934 2.084-2.084 2.084z"/><path d="M93.75 29.696a6.235 6.235 0 0 1-3.458-1.046l-6.03-4a2.077 2.077 0 0 1-.929-1.733v-12.5c0-.696.346-1.346.925-1.73l6.017-4.029a6.258 6.258 0 0 1 8.67 1.717A6.233 6.233 0 0 1 100 9.85v13.596a6.258 6.258 0 0 1-6.25 6.25zM87.5 21.8l5.096 3.383a2.084 2.084 0 0 0 3.237-1.733V9.85a2.083 2.083 0 0 0-3.242-1.73L87.5 11.53V21.8zM5.975 33.333H4.167A4.174 4.174 0 0 1 0 29.167V12.5a4.174 4.174 0 0 1 4.167-4.167h1.808a6.29 6.29 0 0 1 5.358 3.034L13.8 15.47a10.402 10.402 0 0 1 0 10.72l-2.467 4.11a6.293 6.293 0 0 1-5.358 3.033zM4.167 12.5v16.667h1.808c.725 0 1.408-.388 1.783-1.017l2.467-4.104a6.228 6.228 0 0 0 0-6.43l-2.467-4.1A2.086 2.086 0 0 0 5.975 12.5H4.167zm29.166 66.667c-4.595 0-8.333-3.738-8.333-8.334v-31.25a2.084 2.084 0 0 1 4.167 0v31.25A4.174 4.174 0 0 0 33.333 75a4.174 4.174 0 0 0 4.167-4.167V60.417c0-6.892 5.608-12.5 12.5-12.5a4.174 4.174 0 0 0 4.167-4.167v-4.167a2.084 2.084 0 0 1 4.166 0v4.167c0 4.596-3.737 8.333-8.333 8.333s-8.333 3.738-8.333 8.334v10.416c0 4.596-3.738 8.334-8.334 8.334zM41.667 25c-4.596 0-8.334-3.738-8.334-8.333s3.738-8.334 8.334-8.334S50 12.071 50 16.667 46.263 25 41.667 25zm0-12.5c-2.296 0-4.167 1.87-4.167 4.167s1.87 4.166 4.167 4.166 4.166-1.87 4.166-4.166-1.87-4.167-4.166-4.167zm22.916 20.833H56.25a2.084 2.084 0 0 1 0-4.166h8.333a2.084 2.084 0 0 1 0 4.166z"/></g></svg>