<svg xmlns="http://www.w3.org/2000/svg" viewBox="0 0 130.64 131.444"><path fill="#FFF" d="M66.686 4.726L65.153.013 64.329 0l2.009 5.721.086.001.586.01L69.207.079l-.824-.013-1.697 4.66zm7.46-4.255a.415.415 0 0 0-.327.077.411.411 0 0 0-.147.281.402.402 0 0 0 .074.303c.064.086.163.137.298.154a.428.428 0 0 0 .33-.075.396.396 0 0 0 .151-.274.407.407 0 0 0-.077-.309.428.428 0 0 0-.302-.157zM73.06 6.146l.725.091.526-4.194-.725-.091-.526 4.194zm5.724.774c.247.237.558.399.933.487.375.088.707.087.995-.003.288-.089.536-.233.742-.43l-.352-.435c-.179.148-.367.25-.563.306a1.283 1.283 0 0 1-.652 0 1.162 1.162 0 0 1-.595-.329 1.224 1.224 0 0 1-.305-.591 1.776 1.776 0 0 1 .003-.733l2.785.65.074-.316c.092-.396.113-.758.061-1.089a1.555 1.555 0 0 0-.396-.84c-.212-.23-.51-.39-.893-.479a1.7 1.7 0 0 0-.944.049 1.894 1.894 0 0 0-.836.581c-.242.282-.413.637-.513 1.065l-.038.164c-.089.383-.091.743-.006 1.082s.253.624.5.861zm.923-3.088a.942.942 0 0 1 .782-.144c.33.077.546.242.649.494.103.253.127.542.072.869l-.013.053-2.05-.478c.137-.367.323-.631.56-.794zm9.303 5.395l.224-3.351-.102-.039-.448-.173-2.043 2.574.355-3.225-.678-.261-.376 4.385.117.045.434.167 2.081-2.618-.193 3.346.098.038.452.174 2.665-3.503-.674-.26-1.912 2.701zm10.763 6.981l4.934-3.527-.682-.462-3.972 2.971 1.298-4.783-.682-.462-1.451 5.887.071.048.484.328zm9.013-.17c-.008-.109-.063-.208-.166-.296s-.208-.127-.315-.115-.2.062-.278.153a.405.405 0 0 0-.105.293.418.418 0 0 0 .164.292.427.427 0 0 0 .317.119.394.394 0 0 0 .277-.146.408.408 0 0 0 .106-.3zm-4.197 3.843l.555.475 2.748-3.211-.555-.475-2.748 3.211zm5.901 5.043l-.302.334.459.485 4.361-4.121-.502-.531-1.593 1.505c.047-.432-.1-.828-.442-1.19a1.484 1.484 0 0 0-.799-.454 1.726 1.726 0 0 0-.953.095 2.884 2.884 0 0 0-.963.625l-.06.056a2.78 2.78 0 0 0-.657.909c-.141.325-.192.643-.153.953s.17.584.394.821c.355.376.758.547 1.21.513zm-.779-2.039a2.43 2.43 0 0 1 .487-.625l.06-.056c.212-.2.43-.352.655-.455.225-.103.445-.141.659-.113a.961.961 0 0 1 .582.318c.161.17.259.351.293.543.034.192.018.387-.048.586l-1.422 1.344c-.444.125-.82.025-1.13-.303-.172-.182-.266-.38-.282-.594s.033-.429.146-.645zm4.454 5.681a1.768 1.768 0 0 0-.184.979c.033.341.163.666.391.977.228.311.48.527.756.647.277.12.558.173.844.157l.017-.559a1.533 1.533 0 0 1-.626-.135 1.296 1.296 0 0 1-.495-.425 1.152 1.152 0 0 1-.237-.638c-.01-.223.041-.439.153-.647.112-.208.272-.393.48-.555l1.688 2.308.262-.191c.328-.24.58-.502.756-.786.176-.284.259-.582.248-.895-.011-.313-.133-.628-.365-.945a1.699 1.699 0 0 0-.747-.578 1.887 1.887 0 0 0-1.012-.104c-.367.056-.729.214-1.084.474l-.135.099a2.257 2.257 0 0 0-.71.817zm2.529-.761a.945.945 0 0 1 .687.4c.2.273.257.539.17.798s-.257.494-.512.706l-.044.032-1.243-1.699c.342-.19.656-.269.942-.237zm1.662 8.978c.188.34.433.591.737.755.303.164.635.236.994.216a2.5 2.5 0 0 0 1.076-.327l.079-.044c.358-.198.641-.444.851-.738a1.83 1.83 0 0 0 .347-.959 1.861 1.861 0 0 0-.251-1.031 1.832 1.832 0 0 0-.735-.752 1.828 1.828 0 0 0-.996-.215c-.36.021-.72.13-1.077.328l-.079.043a2.477 2.477 0 0 0-.848.739 1.84 1.84 0 0 0-.345.958c-.023.346.06.687.247 1.027zm.677-1.586c.164-.193.371-.359.622-.498l.079-.043c.251-.139.502-.226.752-.262a1.28 1.28 0 0 1 .69.078c.209.088.376.244.499.467.125.226.169.451.133.677a1.293 1.293 0 0 1-.299.63c-.163.194-.37.361-.621.499l-.079.043a2.196 2.196 0 0 1-.752.262 1.26 1.26 0 0 1-.69-.081 1.032 1.032 0 0 1-.498-.47 1.038 1.038 0 0 1-.134-.676c.035-.223.134-.432.298-.626zm4.466 13.756l6.052.401-.234-.79-4.955-.221 4.036-2.876-.234-.79-4.855 3.632.024.082.166.562zm5.551 5.145l-4.162.737.127.719 4.162-.737-.127-.719zm1.581.097c-.024-.133-.08-.23-.17-.289a.412.412 0 0 0-.312-.058.403.403 0 0 0-.267.16c-.063.086-.082.196-.059.33.024.133.08.231.169.293a.398.398 0 0 0 .307.063.405.405 0 0 0 .272-.165.431.431 0 0 0 .06-.334zm-3.778 6.247a1.75 1.75 0 0 1 .701-.214l.203 2.852.323-.023a2.872 2.872 0 0 0 1.058-.263c.3-.147.529-.356.686-.627.157-.271.221-.603.193-.995a1.698 1.698 0 0 0-.326-.887 1.888 1.888 0 0 0-.802-.626c-.341-.148-.731-.206-1.17-.175l-.167.012a2.264 2.264 0 0 0-1.035.315 1.771 1.771 0 0 0-.676.732c-.153.306-.216.651-.189 1.036s.126.701.297.95c.171.249.381.443.631.582l.311-.465a1.557 1.557 0 0 1-.459-.447 1.287 1.287 0 0 1-.193-.622 1.156 1.156 0 0 1 .614-1.135zm2.212.067a.944.944 0 0 1 .369.704c.024.338-.069.593-.28.766-.211.173-.481.282-.809.326l-.055.004-.15-2.1c.391.022.699.122.925.3zm-3.223 7.654l-.03.464 3.12 1.204-3.251.816-.007.105-.031.483 4.139 1.496.047-.721-3.148-1.018 3.264-.787.007-.109.031-.479-3.067-1.181 3.184-.624.047-.725-4.297.952-.008.124zm-2.427 14.611l-.169.561 4.841 3.653.237-.789-4.023-2.901 4.952-.193.237-.789-6.052.376-.023.082zm2.7 8.323a.406.406 0 0 0-.311-.013.416.416 0 0 0-.23.243.433.433 0 0 0-.02.338c.04.101.114.174.222.221.11.047.216.051.318.011a.426.426 0 0 0 .233-.246.408.408 0 0 0 .016-.335.41.41 0 0 0-.228-.219zm-5.228-1.39l3.884 1.667.288-.671-3.884-1.667-.288.671zm1.173 7.31c.164-.291.229-.59.196-.898a1.735 1.735 0 0 0-.373-.882 2.866 2.866 0 0 0-.882-.734l-.072-.04a2.764 2.764 0 0 0-1.062-.358 1.81 1.81 0 0 0-.956.137 1.429 1.429 0 0 0-.667.62c-.253.449-.296.885-.13 1.307l-.409-.19-.327.582 5.229 2.942.358-.637-1.91-1.074c.426-.083.761-.341 1.005-.775zm-1.621.428l-1.706-.959c-.252-.387-.267-.776-.046-1.169a.96.96 0 0 1 .484-.445c.2-.079.419-.096.659-.053.24.044.487.137.741.28l.072.04c.254.143.464.307.629.491.165.184.266.383.303.596a.964.964 0 0 1-.131.65 1.068 1.068 0 0 1-.432.441c-.172.09-.363.133-.573.128zm-3.59 3.852l-.135-.1a2.256 2.256 0 0 0-.99-.435 1.778 1.778 0 0 0-.99.114 1.96 1.96 0 0 0-.818.663c-.23.309-.361.614-.394.914-.033.3 0 .584.1.852l.539-.15a1.539 1.539 0 0 1-.057-.638c.027-.202.113-.402.259-.598a1.157 1.157 0 0 1 1.202-.46c.232.046.456.144.672.294l-1.704 2.296.26.193c.326.242.651.405.974.49.323.084.633.075.928-.029.296-.103.561-.313.795-.629.193-.259.303-.555.331-.885a1.894 1.894 0 0 0-.201-.998c-.16-.334-.418-.632-.771-.894zm.172 2.429c-.202.272-.439.405-.712.398-.273-.006-.548-.099-.826-.28l-.044-.032 1.255-1.691c.282.271.451.548.505.83a.941.941 0 0 1-.178.775zm-4.953 3.626l-.065-.062a2.488 2.488 0 0 0-.957-.591 1.843 1.843 0 0 0-1.018-.045 1.85 1.85 0 0 0-.906.541c-.269.28-.436.589-.503.928-.067.338-.037.676.089 1.013.126.337.336.647.631.93l.065.062c.295.283.614.481.957.593.343.112.683.128 1.019.046s.64-.263.91-.545c.267-.278.434-.586.5-.925s.036-.677-.09-1.015a2.506 2.506 0 0 0-.632-.93zm-.2 2.465c-.179.186-.381.295-.607.328s-.456-.001-.69-.099a2.163 2.163 0 0 1-.661-.445l-.065-.062a2.173 2.173 0 0 1-.473-.641 1.267 1.267 0 0 1-.128-.683 1.03 1.03 0 0 1 .301-.615c.178-.186.38-.296.605-.329.225-.033.454 0 .687.099.233.099.453.248.66.446l.065.062c.207.198.365.412.473.641.109.229.152.456.13.682-.021.227-.12.432-.297.616zm-12.337 5.582l-.486.327 1.428 5.894.684-.46-1.272-4.794 3.952 2.991.684-.46-4.919-3.545-.071.047zm-5.698 3.424l-.648.337 1.95 3.75.648-.337-1.95-3.75zm2.284 4.516c-.101-.034-.212-.02-.332.043s-.197.146-.229.249a.393.393 0 0 0 .032.311.406.406 0 0 0 .239.21c.104.034.216.02.336-.043a.414.414 0 0 0 .225-.249.415.415 0 0 0-.038-.315.405.405 0 0 0-.233-.206zm-5.93-.579a2.252 2.252 0 0 0-.61-.893 1.774 1.774 0 0 0-.9-.427 1.956 1.956 0 0 0-1.044.13c-.359.141-.631.33-.818.567a1.83 1.83 0 0 0-.366.776l.537.158c.063-.224.16-.414.289-.571.13-.157.309-.281.536-.371a1.16 1.16 0 0 1 .677-.067c.219.047.414.151.587.313.173.161.311.363.414.605l-2.661 1.047.119.302c.149.378.338.688.568.931.23.243.497.398.803.467.306.069.641.031 1.007-.113.3-.118.55-.31.749-.576.199-.266.318-.583.357-.953.039-.37-.021-.759-.183-1.169l-.061-.156zm-.516 1.746a.949.949 0 0 1-.561.563c-.315.124-.587.111-.815-.038-.228-.15-.412-.374-.553-.674l-.02-.051 1.959-.771c.097.378.093.702-.01.971zm-8.26-.797l-.452.109-.225 3.337-1.742-2.863-.103.025-.471.113-.203 4.396.703-.169.039-3.308 1.719 2.885.106-.026.467-.112.219-3.279 1.539 2.856.706-.17-2.182-3.822-.12.028zm-14.684 2.005l-.586.01-2.013 5.721.824-.013 1.545-4.713 1.685 4.661.824-.013-2.193-5.653h-.086zm-7.807 3.862l.727.074.429-4.205-.727-.074-.429 4.205zm.285.752a.43.43 0 0 0-.328.082.396.396 0 0 0-.144.278.405.405 0 0 0 .085.307c.069.086.17.135.305.149a.413.413 0 0 0 .325-.085.412.412 0 0 0 .141-.284.401.401 0 0 0-.081-.301.427.427 0 0 0-.303-.146zm-4.765-5.482a1.437 1.437 0 0 0-.791-.451c-.505-.107-.933-.017-1.286.267l.058-.447-.654-.138-1.24 5.87.715.151.453-2.144c.207.382.554.624 1.04.727.326.069.631.042.916-.082s.528-.331.73-.62c.202-.29.348-.644.436-1.062l.017-.08c.084-.4.092-.774.023-1.121a1.799 1.799 0 0 0-.417-.87zm-.321 1.841l-.017.08c-.06.285-.154.535-.28.747s-.286.369-.478.468a.969.969 0 0 1-.66.07c-.229-.048-.413-.142-.55-.28s-.235-.308-.294-.509l.404-1.915c.293-.356.661-.487 1.101-.394a.96.96 0 0 1 .57.328c.135.167.218.371.248.613.031.243.016.506-.044.792zm-7.238-3.834a1.962 1.962 0 0 0-.877-.582c-.364-.127-.694-.161-.99-.103a1.846 1.846 0 0 0-.784.35l.304.47c.193-.129.391-.21.592-.245s.417-.012.648.068a1.153 1.153 0 0 1 .798 1.01c.026.235-.001.478-.08.729l-2.701-.94-.107.306a2.87 2.87 0 0 0-.176 1.076c.016.334.118.626.305.877s.466.441.838.571a1.7 1.7 0 0 0 .944.051c.324-.072.622-.235.892-.49.271-.255.478-.59.623-1.005l.055-.159c.129-.371.169-.73.12-1.075a1.76 1.76 0 0 0-.404-.909zm-1.243 2.973a.945.945 0 0 1-.793.061c-.32-.111-.517-.298-.593-.56-.076-.262-.069-.553.02-.872l.018-.052 1.989.692c-.174.351-.388.595-.641.731zm-6.48-6.453a1.844 1.844 0 0 0-1.035-.204 1.835 1.835 0 0 0-.941.386c-.285.22-.518.513-.701.879l-.04.081a2.527 2.527 0 0 0-.282 1.09c-.005.361.081.69.259.987.178.297.442.532.791.707.345.172.689.24 1.032.203.343-.037.657-.166.942-.388.285-.222.519-.515.701-.881l.04-.081c.183-.366.276-.729.279-1.089a1.852 1.852 0 0 0-.259-.985 1.842 1.842 0 0 0-.786-.705zm.113 2.453l-.04.08c-.128.256-.285.47-.471.642-.186.172-.39.281-.613.327a1.019 1.019 0 0 1-.676-.102 1.031 1.031 0 0 1-.493-.482 1.288 1.288 0 0 1-.111-.688c.024-.253.1-.507.228-.764l.04-.08c.128-.256.285-.471.471-.642.186-.172.391-.28.614-.325.223-.044.449-.01.677.104.231.115.395.275.494.48.099.205.135.433.11.685a2.235 2.235 0 0 1-.23.765zm-11.251-9.549l-5.206 3.111.642.517 4.202-2.635-1.685 4.661.642.517 1.929-5.749-.067-.054-.457-.368zm-5.023-4.582l-3.002 2.975.514.519 3.002-2.975-.514-.519zm-3.565 3.592a.394.394 0 0 0-.288.123.408.408 0 0 0-.13.291.429.429 0 0 0 .141.309.415.415 0 0 0 .305.141.413.413 0 0 0 .289-.13.4.4 0 0 0 .128-.284.42.42 0 0 0-.139-.305.431.431 0 0 0-.306-.145zm-.084-6.222a1.78 1.78 0 0 0 .139-.987 1.966 1.966 0 0 0-.435-.958c-.242-.3-.503-.504-.785-.611a1.842 1.842 0 0 0-.85-.118l.009.559c.232-.006.443.029.632.106s.36.211.514.401c.157.195.245.404.266.626.02.223-.021.44-.124.653a1.773 1.773 0 0 1-.454.576l-1.793-2.228-.253.203a2.847 2.847 0 0 0-.719.82 1.56 1.56 0 0 0-.206.906c.026.312.162.621.408.928.202.252.46.433.773.543.313.111.652.13 1.016.057.364-.073.718-.247 1.061-.523l.131-.105c.305-.246.529-.529.67-.848zm-2.491.876a.947.947 0 0 1-.705-.368c-.212-.264-.281-.527-.206-.789.075-.262.234-.505.479-.729l.043-.034 1.32 1.64c-.334.205-.644.299-.931.28zm-1.948-8.522l-3.251.784 2.21-2.519-.054-.09-.249-.415L9.309 96.3l.372.62 3.168-.953-2.238 2.504.056.094.247.412 3.194-.773-2.264 2.324.374.623 2.993-3.226-.064-.107-.238-.399zM8.661 83.857l-6.059-.256.253.784 4.959.102-3.966 2.972.253.784 4.766-3.748-.026-.082-.18-.556zm-6.632-5.548a.396.396 0 0 0-.308-.056.406.406 0 0 0-.268.172.426.426 0 0 0-.052.335c.027.133.086.228.177.285a.418.418 0 0 0 .313.051.4.4 0 0 0 .263-.167c.061-.088.078-.198.051-.331a.434.434 0 0 0-.176-.289zm.954.511l4.143-.834-.144-.716-4.143.834.144.716zm1.181-5.432l.082-.008a2.798 2.798 0 0 0 1.078-.309c.311-.169.547-.387.708-.656.161-.268.226-.565.196-.889-.047-.513-.259-.897-.636-1.149l.444-.077-.062-.665L0 70.187l.067.727 2.182-.202c-.303.31-.432.713-.387 1.209.031.332.147.615.349.85.202.235.472.406.808.514.338.108.719.142 1.145.103zm-1.715-1.701a1.055 1.055 0 0 1 .105-.608c.091-.172.224-.316.399-.431l1.949-.18c.427.175.661.487.702.935a.955.955 0 0 1-.145.641c-.12.179-.29.318-.513.418-.222.1-.478.164-.769.191l-.081.007c-.29.027-.556.012-.797-.046a1.193 1.193 0 0 1-.589-.318.974.974 0 0 1-.261-.609zm.121-6.528c.324.182.706.281 1.146.295l.168.005c.393.013.747-.056 1.062-.206.315-.15.564-.369.748-.658.184-.288.282-.625.294-1.011.012-.386-.054-.711-.198-.976a1.845 1.845 0 0 0-.568-.644l-.358.43c.18.146.317.31.41.492.093.182.136.395.128.639-.008.25-.077.466-.206.648-.13.182-.303.321-.519.415a1.76 1.76 0 0 1-.72.141l.092-2.858-.324-.01a2.86 2.86 0 0 0-1.08.153 1.562 1.562 0 0 0-.747.552c-.184.253-.282.577-.295.97-.01.323.067.628.232.916.167.289.412.524.735.707zm-.023-2.336c.228-.15.507-.231.838-.241l.055.002-.068 2.104c-.386-.062-.682-.193-.888-.394a.947.947 0 0 1-.295-.738c.012-.339.131-.583.358-.733zm.598-5.505c.297.206.647.341 1.051.406l.089.014c.404.065.778.045 1.123-.06.345-.104.633-.285.862-.542.23-.257.375-.577.437-.961a1.846 1.846 0 0 0-.115-1.049 1.834 1.834 0 0 0-.65-.782 2.484 2.484 0 0 0-1.049-.405l-.089-.014a2.508 2.508 0 0 0-1.125.057 1.833 1.833 0 0 0-.864.542c-.23.259-.376.581-.438.966-.061.381-.022.729.116 1.045.138.317.356.578.652.783zm-.189-1.735c.041-.255.145-.459.312-.615.167-.155.375-.259.624-.312.248-.053.514-.056.797-.011l.089.014c.283.045.534.131.754.257.22.126.384.289.493.488.109.2.144.425.103.677a1.04 1.04 0 0 1-.31.615 1.253 1.253 0 0 1-.621.31 2.213 2.213 0 0 1-.797.009l-.089-.014a2.197 2.197 0 0 1-.754-.257 1.277 1.277 0 0 1-.496-.487 1.018 1.018 0 0 1-.105-.674zm6.971-11.589l.214-.545-4.522-4.042-.302.767 3.768 3.225-4.95-.219-.302.767 6.062.127.032-.08zM7.923 35.48a.4.4 0 0 0 .309.038c.103-.029.186-.104.249-.224a.432.432 0 0 0 .048-.335.393.393 0 0 0-.203-.238c-.106-.056-.211-.069-.316-.037s-.189.106-.253.226c-.063.12-.078.231-.044.333a.415.415 0 0 0 .21.237zm5.095 1.817l-3.733-1.982-.342.645 3.733 1.982.342-.645zm.287-4.76l.139.094c.326.219.663.349 1.009.389s.674-.013.983-.16a1.96 1.96 0 0 0 .786-.7c.215-.32.332-.63.351-.931a1.84 1.84 0 0 0-.139-.847l-.532.174c.075.22.104.431.086.635a1.3 1.3 0 0 1-.231.609 1.159 1.159 0 0 1-1.18.515 1.778 1.778 0 0 1-.685-.263l1.596-2.372-.267-.18a2.846 2.846 0 0 0-.996-.444 1.57 1.57 0 0 0-.926.071c-.291.117-.546.339-.765.665-.18.268-.277.568-.29.9s.069.661.247.987c.177.327.448.613.814.858zm-.285-2.418c.189-.281.42-.424.693-.431.273-.006.552.074.838.241l.045.03-1.175 1.747c-.294-.258-.475-.526-.543-.806a.943.943 0 0 1 .142-.781zm7.103-3.248l.31-.347-1.714-2.872 3.062 1.363.07-.079.323-.361-2.335-3.73-.482.539 1.85 2.742-3.055-1.394-.073.081-.32.358 1.686 2.821-2.891-1.472-.484.542 3.969 1.901.084-.092zm9.162-15.736l1.385 4.763-4.022-2.896-.673.476 5.001 3.428.07-.05.478-.339-1.567-5.859-.672.477zm5.556-2.611a.399.399 0 0 0-.039-.311.409.409 0 0 0-.244-.205.428.428 0 0 0-.335.051.41.41 0 0 0-.219.254.42.42 0 0 0 .045.314.4.4 0 0 0 .238.201.416.416 0 0 0 .331-.051.426.426 0 0 0 .223-.253zm2.475 4.414l-2.037-3.703-.64.352 2.037 3.703.64-.352zm6.965-3.24l-2.316-5.535-.674.282.846 2.021c-.387-.196-.81-.199-1.269-.007a1.485 1.485 0 0 0-.707.588 1.732 1.732 0 0 0-.248.925c-.002.354.08.727.245 1.121l.032.077c.158.377.364.689.618.936.254.247.533.406.838.479.304.073.607.047.907-.079.476-.199.778-.516.906-.951l.206.401.616-.258zm-1.797.176c-.231.096-.449.115-.655.054s-.39-.182-.552-.364a2.378 2.378 0 0 1-.412-.677l-.032-.076c-.112-.269-.177-.527-.195-.774s.025-.466.128-.657a.97.97 0 0 1 .503-.433c.216-.091.42-.118.611-.082.191.036.368.12.531.252l.755 1.805c-.039.461-.267.778-.682.952zm8.901-3.18l-.517-.214a1.535 1.535 0 0 1-.348.538 1.286 1.286 0 0 1-.572.312 1.148 1.148 0 0 1-.68-.005 1.23 1.23 0 0 1-.551-.373 1.756 1.756 0 0 1-.348-.646l2.756-.761-.086-.312c-.108-.392-.264-.72-.467-.986s-.453-.447-.749-.548c-.297-.1-.634-.098-1.013.006-.311.086-.58.251-.806.494a1.89 1.89 0 0 0-.456.91c-.078.363-.058.757.059 1.181l.045.162c.105.379.275.697.512.953s.52.429.85.519c.33.09.681.084 1.052-.019s.663-.262.873-.478c.21-.216.359-.46.446-.733zm-3.037-1.923a.946.946 0 0 1 .617-.501c.326-.09.595-.049.806.124.211.173.371.416.479.729l.015.053-2.03.56c-.055-.387-.018-.709.113-.965zm10.607-.765l-.013-.089a2.522 2.522 0 0 0-.387-1.057 1.828 1.828 0 0 0-.773-.665 1.864 1.864 0 0 0-1.053-.132 1.833 1.833 0 0 0-.964.419c-.261.225-.446.51-.555.854a2.521 2.521 0 0 0-.077 1.124l.013.089c.058.405.187.757.389 1.055.202.299.459.52.773.663.313.143.662.188 1.046.133.384-.055.707-.195.968-.42.261-.225.446-.509.555-.852.11-.343.135-.717.078-1.122zm-.746.899a1.26 1.26 0 0 1-.321.616 1.035 1.035 0 0 1-.616.299 1.038 1.038 0 0 1-.679-.115 1.258 1.258 0 0 1-.48-.502 2.2 2.2 0 0 1-.244-.758l-.013-.089a2.195 2.195 0 0 1 .023-.796 1.28 1.28 0 0 1 .318-.617c.157-.164.362-.265.614-.3.255-.036.482.002.68.116.198.114.358.282.482.504.124.222.206.474.246.758l.013.089c.04.283.032.548-.023.795z"/></svg>